<?xml version="1.0" standalone="no"?>
<!DOCTYPE svg PUBLIC "-//W3C//DTD SVG 20010904//EN"
 "http://www.w3.org/TR/2001/REC-SVG-20010904/DTD/svg10.dtd">
<svg version="1.0" xmlns="http://www.w3.org/2000/svg"
 width="1000.000000pt" height="1000.000000pt" viewBox="0 0 1000.000000 1000.000000"
 preserveAspectRatio="xMidYMid meet">
<metadata>
Created by potrace 1.14, written by Peter Selinger 2001-2017
</metadata>
<g transform="translate(0.000000,1000.000000) scale(0.100000,-0.100000)"
fill="#000000" stroke="none">
<path d="M4865 9630 c-44 -4 -111 -15 -149 -24 -37 -10 -71 -15 -74 -12 -3 3
-10 2 -16 -3 -6 -4 -51 -14 -101 -21 -70 -9 -127 -27 -260 -82 -93 -39 -174
-71 -180 -72 -5 -1 -25 -10 -43 -19 -18 -10 -38 -15 -45 -11 -7 4 -9 3 -4 -1
6 -7 -311 -170 -322 -165 -2 1 -7 -3 -10 -8 -3 -5 -33 -24 -66 -42 -110 -61
-142 -88 -187 -159 -23 -39 -48 -70 -54 -71 -6 0 -14 -14 -18 -31 -3 -17 -10
-28 -15 -25 -5 4 -5 22 1 46 6 22 14 37 18 35 5 -3 16 18 25 46 19 55 11 77
-22 65 -15 -6 -15 -8 -3 -16 9 -6 10 -10 3 -10 -6 0 -19 -3 -29 -7 -12 -4 -15
-3 -10 5 4 7 1 12 -9 12 -12 0 -15 -5 -11 -16 5 -14 1 -15 -26 -10 -18 3 -37
7 -43 7 -13 2 -104 -21 -130 -32 -11 -5 -27 -10 -35 -11 -8 -2 -35 -27 -59
-55 -25 -29 -46 -51 -48 -50 -1 2 3 34 9 72 11 70 39 127 74 155 17 13 18 13
7 0 -9 -12 -7 -15 13 -16 16 -1 33 9 51 30 14 17 33 30 42 28 14 -2 14 -1 1 7
-12 8 -10 15 14 40 16 17 34 28 39 24 6 -3 7 -1 3 5 -4 7 0 22 8 34 9 12 16
37 16 56 0 19 4 31 10 27 14 -9 0 57 -16 76 -8 8 -14 28 -14 42 0 22 -5 27
-26 27 -14 0 -32 -7 -40 -15 -9 -9 -11 -15 -4 -15 6 0 -3 -13 -20 -30 -16 -16
-30 -34 -30 -40 0 -6 -8 -4 -17 6 -11 11 -18 13 -21 5 -2 -6 -14 -11 -27 -11
-13 0 -27 -5 -30 -10 -4 -6 -11 -8 -16 -5 -5 3 -6 -2 -2 -11 4 -10 0 -22 -11
-30 -10 -6 -17 -16 -17 -21 1 -4 -12 -8 -28 -8 -16 0 -27 -3 -25 -7 3 -5 13
-8 22 -8 10 0 13 -3 7 -8 -5 -4 -11 -13 -12 -19 -2 -7 -4 -16 -5 -20 -1 -5 2
-37 7 -73 7 -53 10 -61 16 -40 10 28 7 1 -10 -105 -8 -44 -7 -66 2 -85 8 -14
10 -36 6 -50 -6 -23 -7 -23 -8 -3 -1 12 -4 24 -8 26 -5 3 -7 -30 -6 -74 2 -77
-9 -107 -28 -78 -7 12 -9 11 -9 -1 0 -9 5 -21 11 -27 6 -6 8 -16 5 -22 -13
-20 -24 -11 -31 25 -8 45 -21 68 -62 114 -18 19 -31 41 -28 48 3 7 1 11 -4 7
-12 -7 -42 5 -36 15 5 9 -51 19 -115 21 l-45 2 35 7 c31 6 32 8 8 9 -15 0 -39
-4 -55 -10 -15 -6 -46 -12 -67 -14 -59 -6 -65 -19 -26 -60 19 -19 29 -35 22
-35 -7 0 -5 -7 6 -18 9 -11 21 -17 26 -14 5 3 6 -1 4 -9 -3 -8 -11 -13 -17
-11 -6 1 -11 -7 -11 -18 0 -13 9 -22 25 -26 14 -3 25 -12 25 -20 0 -8 10 -14
26 -14 16 0 28 -7 31 -18 7 -27 87 -43 138 -28 22 7 46 11 53 10 6 -1 21 -2
32 -3 23 -1 17 -28 -12 -49 -10 -7 -25 -26 -33 -42 -14 -27 -14 -37 1 -97 16
-70 26 -98 50 -147 12 -24 13 -31 2 -38 -10 -8 -10 -9 1 -6 19 5 73 -51 66
-69 -4 -11 -1 -13 11 -9 11 4 14 1 12 -12 -2 -11 -11 -16 -23 -14 -20 3 -20 3
0 -12 l20 -17 -20 3 c-43 6 -124 120 -133 188 -4 34 -40 61 -72 53 -21 -5 -23
-4 -13 8 10 12 -6 14 -103 16 -70 1 -112 -2 -109 -8 4 -5 2 -9 -4 -9 -6 0 -13
12 -17 28 -8 39 -36 90 -61 114 l-22 21 2 -41 c1 -30 6 -42 19 -45 10 -3 18
-10 18 -17 0 -7 -11 -4 -27 8 -32 22 -91 50 -113 53 -28 4 -90 -13 -84 -23 4
-6 1 -9 -6 -6 -17 5 -48 -24 -51 -49 -4 -31 12 -121 25 -139 7 -9 24 -19 37
-21 13 -2 26 -8 30 -15 4 -6 11 -8 16 -5 5 3 36 -3 69 -13 42 -14 51 -19 32
-19 -31 -1 -39 -21 -9 -21 11 0 22 -9 26 -20 3 -11 16 -27 28 -37 31 -25 32
-58 1 -72 -14 -6 -30 -9 -35 -6 -5 4 -9 0 -9 -7 0 -7 -19 -21 -41 -32 -22 -10
-38 -20 -35 -23 3 -3 -5 -22 -18 -42 -13 -20 -21 -41 -19 -47 7 -21 -15 -62
-32 -60 -23 3 -37 28 -22 39 8 6 6 7 -5 3 -12 -3 -36 13 -75 51 -42 40 -51 54
-34 48 17 -5 21 -4 16 5 -4 6 -15 10 -26 7 -12 -3 -25 7 -44 34 -14 21 -29 39
-33 39 -4 0 -8 9 -9 20 -2 25 -39 75 -68 90 -22 12 -22 13 -6 41 18 32 19 32
110 33 42 1 66 5 68 14 3 6 -1 12 -9 12 -7 0 -30 9 -51 20 -41 22 -51 25 -42
10 4 -6 -3 -6 -21 0 -15 6 -29 8 -32 5 -3 -3 0 -5 8 -5 10 0 10 -3 0 -15 -7
-8 -16 -12 -22 -9 -5 3 -15 0 -23 -6 -12 -10 -17 -8 -24 11 -5 13 -10 20 -10
15 -2 -21 -31 19 -31 43 0 15 -9 33 -20 41 -13 9 -18 21 -14 36 3 13 1 31 -6
41 -10 15 -10 13 -5 -12 5 -28 4 -29 -10 -11 -8 10 -13 22 -10 25 2 4 -12 8
-31 9 -25 2 -34 -1 -34 -13 0 -8 4 -15 9 -15 5 0 11 -6 14 -13 3 -10 -11 -14
-56 -15 -33 -2 -66 -7 -72 -12 -13 -11 -8 -57 6 -66 13 -8 11 -42 -2 -46 -7
-2 -9 -13 -5 -26 4 -12 11 -20 16 -17 4 3 6 -3 3 -13 -5 -20 31 -89 57 -109
19 -15 70 -16 106 -3 42 16 41 2 -1 -16 -21 -8 -49 -14 -62 -11 -18 3 -23 1
-19 -10 4 -11 1 -13 -14 -8 -38 12 -20 -6 26 -25 58 -25 122 -16 110 15 -2 7
2 16 10 19 8 3 14 1 14 -5 0 -6 4 -7 10 -4 5 3 20 -1 32 -9 12 -9 33 -16 46
-16 22 0 92 -47 92 -62 0 -4 23 -30 50 -58 28 -28 50 -55 50 -60 0 -5 10 -12
23 -16 21 -7 21 -7 2 -15 -18 -7 -17 -8 8 -10 15 -1 35 -2 45 -3 33 -3 43 -15
29 -39 -26 -46 -67 -56 -67 -16 0 10 -4 19 -10 19 -5 0 -32 14 -60 30 -28 17
-55 28 -60 25 -13 -8 -72 24 -65 35 3 5 1 11 -5 15 -5 3 -10 -1 -10 -10 0 -12
-5 -15 -16 -11 -9 3 -19 6 -22 6 -4 0 0 5 8 10 11 7 5 8 -19 3 -27 -5 -32 -3
-26 7 5 9 4 11 -3 6 -6 -4 -31 -2 -54 5 -37 10 -140 28 -173 30 -5 0 -28 -2
-50 -5 -31 -4 -34 -4 -15 3 23 8 24 9 3 10 -12 1 -29 9 -39 19 -13 13 -37 18
-98 19 -60 2 -75 0 -58 -7 13 -5 47 -11 77 -12 45 -2 53 -5 52 -20 -1 -10 -6
-17 -12 -14 -5 2 -21 -2 -35 -9 -14 -6 -44 -10 -68 -7 -43 4 -43 4 -18 17 14
7 33 15 43 18 16 4 16 5 1 6 -9 0 -29 6 -45 13 -15 6 -31 11 -35 10 -18 -4 -6
9 16 18 28 10 42 54 24 74 -11 12 -15 11 -25 -8 -11 -20 -12 -20 -11 -1 0 11
-3 36 -6 55 -5 26 -4 30 3 15 8 -17 10 -18 10 -2 1 10 9 17 24 18 16 1 18 2 5
6 -10 2 -18 9 -18 14 0 6 5 7 10 4 6 -3 13 1 16 9 8 20 -4 106 -14 106 -4 0
-20 -19 -35 -42 -25 -38 -28 -51 -25 -112 2 -52 -1 -71 -11 -74 -8 -3 -11 0
-7 6 8 13 -24 32 -54 32 -12 0 -19 4 -16 8 2 4 -10 6 -27 4 -19 -2 -40 3 -52
13 -11 9 -13 13 -5 9 8 -4 12 -4 8 1 -4 4 -40 10 -80 12 -40 2 -75 8 -79 15
-6 9 -11 8 -24 -2 -21 -17 -5 -34 36 -37 41 -3 59 -6 59 -9 0 -2 -11 -11 -24
-19 -19 -13 -29 -14 -45 -5 -12 6 -21 7 -21 1 0 -5 -3 -16 -6 -25 -4 -10 -1
-16 8 -16 8 0 24 -13 36 -30 25 -33 29 -48 8 -31 -11 9 -16 9 -22 0 -4 -7 -3
-9 3 -6 6 4 18 -11 28 -33 10 -22 22 -37 26 -34 5 3 12 -2 15 -10 3 -9 12 -16
20 -16 8 0 14 -4 14 -10 0 -5 8 -10 18 -10 14 0 12 4 -8 20 -14 10 -21 22 -17
26 4 4 15 0 24 -9 10 -8 30 -19 46 -22 15 -4 27 -12 27 -17 0 -6 12 -8 28 -4
22 5 24 4 10 -4 -19 -12 -25 -50 -8 -50 6 0 10 5 10 10 0 6 6 10 13 10 7 0 18
9 24 19 7 11 26 22 43 26 16 4 30 13 30 21 0 16 13 17 58 5 25 -8 46 -5 87 9
30 10 55 16 55 12 0 -4 19 -7 42 -5 24 1 33 -1 21 -3 -50 -11 -19 -29 42 -26
92 6 126 5 137 -6 7 -7 17 -12 22 -12 6 0 4 5 -4 10 -9 6 -10 10 -3 10 6 0 14
-4 18 -10 3 -5 13 -7 23 -4 9 3 6 -2 -8 -11 l-25 -16 34 5 c27 5 32 3 27 -9
-3 -9 0 -15 8 -15 8 0 16 5 18 11 3 8 10 6 20 -5 9 -9 21 -16 27 -16 18 0 12
-18 -6 -22 -16 -3 -15 -5 2 -9 11 -3 29 -2 40 2 18 7 18 8 2 8 -10 1 -16 5
-13 10 8 12 62 -15 70 -35 5 -13 0 -15 -36 -8 -24 4 -56 6 -73 5 -16 -2 -36
-3 -42 -4 -7 0 -13 -3 -13 -7 0 -4 -19 -12 -41 -19 -59 -18 -89 -51 -89 -99 0
-21 -6 -44 -12 -52 -11 -12 -10 -12 3 -2 27 20 32 -13 8 -55 -14 -24 -17 -39
-10 -41 14 -5 14 -35 -1 -50 -15 -15 8 -43 29 -35 9 4 14 2 10 -3 -3 -6 8 -15
24 -21 26 -10 29 -10 18 3 -10 13 -8 13 16 4 19 -7 37 -8 54 -1 58 21 63 21
59 4 -2 -9 -11 -17 -22 -19 -10 -1 -23 -7 -29 -13 -8 -8 -3 -11 16 -11 25 0
32 -9 28 -34 -1 -5 5 -16 13 -25 19 -20 13 -82 -9 -114 -10 -14 -15 -44 -14
-87 0 -45 3 -59 9 -45 7 16 9 17 9 3 1 -22 49 -78 67 -78 8 0 14 -5 14 -11 0
-6 9 -1 21 12 l20 24 -7 -24 c-3 -13 -2 -21 3 -18 5 3 20 -7 33 -24 14 -16 30
-29 37 -29 7 0 13 -7 13 -16 0 -10 6 -14 15 -10 8 3 21 -1 29 -9 8 -8 19 -15
25 -15 6 0 11 -5 11 -11 0 -5 5 -7 10 -4 6 3 10 2 10 -3 0 -11 -30 -26 -44
-23 -5 1 -6 -5 -3 -14 5 -11 -1 -15 -21 -16 -26 0 -26 -1 -5 -9 13 -5 23 -12
23 -15 0 -6 -49 4 -65 14 -5 3 -23 4 -39 2 -15 -1 -26 1 -23 6 9 15 -77 52
-95 42 -30 -17 -85 63 -74 107 5 19 2 24 -13 24 -20 0 -39 -49 -26 -70 4 -6
-4 -10 -19 -10 -18 0 -26 6 -27 18 0 9 -3 12 -5 5 -3 -7 -24 -9 -63 -6 -38 4
-61 2 -65 -6 -4 -6 -15 -11 -25 -11 -19 0 -81 -59 -81 -79 0 -7 -4 -10 -8 -7
-4 2 -8 -12 -9 -32 -1 -36 -1 -36 7 -7 6 23 8 25 10 10 2 -11 3 -26 3 -33 -1
-7 5 -11 13 -8 7 3 17 -1 21 -8 5 -7 28 -20 53 -29 52 -18 142 -32 121 -18 -9
6 4 9 38 9 l51 0 -31 -28 c-22 -19 -28 -29 -20 -35 13 -7 62 2 71 14 3 3 17
14 32 24 20 13 28 14 28 5 0 -7 6 -2 13 11 18 35 45 50 58 31 9 -13 10 -12 5
3 -4 12 1 17 17 19 12 0 35 2 52 3 45 3 62 -12 59 -51 -3 -27 2 -38 21 -50 14
-9 23 -20 20 -24 -7 -12 21 -31 37 -25 8 3 25 -6 38 -21 14 -15 19 -24 13 -20
-7 4 -13 2 -13 -3 0 -6 8 -11 18 -11 15 0 15 -2 2 -11 -13 -9 -12 -10 3 -5 25
8 63 -12 76 -40 6 -13 15 -24 20 -24 5 0 7 -9 4 -19 -4 -15 1 -20 19 -23 15
-2 23 -9 22 -21 -1 -10 5 -17 15 -17 14 -1 14 -2 -2 -14 -23 -17 -22 -26 3
-21 21 4 28 -22 11 -40 -8 -9 -42 -105 -47 -131 -1 -6 -9 -37 -18 -68 -14 -47
-19 -54 -31 -44 -12 11 -11 15 3 27 16 13 16 13 -1 7 -14 -5 -22 4 -39 40 -11
25 -18 54 -15 65 3 10 0 17 -6 16 -6 -1 -12 10 -12 25 -1 15 -11 35 -25 46
-22 18 -23 22 -10 38 14 18 14 18 -4 4 -17 -13 -20 -13 -34 8 -8 12 -23 22
-33 22 -10 0 -21 5 -24 10 -4 6 -10 8 -15 5 -5 -3 -36 -7 -68 -8 -94 -4 -112
-37 -60 -107 15 -21 19 -36 14 -57 -5 -21 -4 -24 4 -13 8 13 10 13 10 0 0 -24
61 -107 94 -126 40 -24 138 -46 150 -33 13 12 46 12 46 -1 0 -5 6 -9 13 -7 7
1 11 -7 9 -23 -2 -14 -5 -72 -8 -130 -5 -96 -10 -123 -35 -172 -13 -25 -11
-47 1 -28 8 11 8 6 3 -15 -11 -43 -7 -99 9 -133 30 -59 15 -684 -22 -924 l-21
-137 21 -81 c11 -45 17 -87 13 -93 -3 -6 -1 -7 5 -3 7 4 13 -7 17 -31 8 -52
43 -158 71 -214 13 -26 37 -93 55 -150 74 -243 99 -414 79 -544 -6 -38 -13
-88 -16 -110 -11 -97 -28 -181 -38 -194 -6 -7 -11 -19 -11 -25 -1 -19 -46 -97
-86 -148 -21 -27 -44 -68 -50 -91 -14 -53 -12 -151 5 -247 l14 -75 -27 -22
c-14 -12 -66 -38 -116 -59 -126 -52 -134 -56 -291 -183 -61 -49 -169 -118
-207 -133 -43 -16 -103 -52 -117 -69 -3 -4 -25 -21 -50 -38 -185 -132 -339
-215 -375 -205 -13 3 -16 2 -8 -3 9 -6 -28 -25 -110 -58 -186 -74 -217 -84
-235 -78 -15 4 -15 3 -2 -6 13 -9 12 -11 -5 -12 -11 -1 -26 -2 -33 -2 -7 1
-11 -2 -7 -5 8 -9 -136 -73 -148 -65 -6 4 -7 1 -2 -7 6 -10 4 -12 -9 -7 -10 4
-15 3 -11 -3 3 -6 2 -10 -3 -10 -7 0 -71 -46 -137 -98 -83 -65 -139 -95 -229
-123 -56 -17 -112 -41 -126 -53 -14 -13 -40 -33 -58 -45 l-32 -22 0 -585 0
-584 5000 0 5000 0 0 633 c-1 591 -2 633 -18 634 -9 1 -51 11 -92 24 -75 22
-99 37 -260 155 -47 34 -115 78 -152 97 -37 19 -64 37 -61 41 4 4 0 4 -9 1 -9
-4 -33 2 -55 13 -21 11 -112 48 -203 82 -187 70 -393 167 -385 181 3 5 -1 6
-9 3 -9 -3 -16 -1 -16 5 0 6 -4 11 -9 11 -11 0 -118 72 -210 142 -35 26 -72
48 -81 48 -15 0 -69 34 -190 117 -14 10 -55 43 -92 73 -37 31 -94 69 -127 85
-33 16 -57 34 -54 39 4 5 1 6 -6 2 -15 -10 -115 29 -157 60 l-31 22 13 74 c28
156 18 260 -30 331 -13 19 -21 38 -18 42 4 3 0 4 -8 1 -9 -4 -19 3 -26 16 -6
13 -24 50 -41 83 -21 40 -35 88 -42 145 -7 47 -17 110 -24 140 -14 69 -13 306
2 324 6 7 9 15 6 18 -8 8 27 158 37 158 5 0 7 4 4 9 -8 12 41 159 92 283 23
53 46 119 51 145 10 46 48 188 51 188 10 0 6 88 -10 195 -18 124 -36 338 -23
280 2 -14 11 -29 19 -33 8 -5 12 -12 9 -16 -2 -5 6 -8 19 -8 18 0 23 4 19 15
-4 10 -2 13 8 10 8 -3 13 -11 12 -17 -2 -6 2 -11 7 -11 6 0 10 5 10 11 0 8 4
8 14 0 8 -7 41 -11 77 -10 l64 2 3 37 c2 31 -4 44 -35 77 -21 22 -43 38 -50
36 -6 -2 -14 0 -17 6 -4 6 -13 8 -21 4 -18 -6 -19 1 -3 26 6 10 8 26 4 36 -5
14 -9 15 -21 5 -8 -7 -15 -18 -15 -24 0 -15 -58 -37 -66 -25 -3 5 -14 9 -25 9
-16 0 -19 7 -19 44 0 50 16 63 49 40 15 -11 26 -12 40 -5 10 6 20 8 23 6 3 -3
22 11 44 31 21 19 33 33 27 29 -9 -4 -13 1 -13 15 0 12 4 18 10 15 5 -3 9 2 8
12 -3 37 3 51 28 68 18 11 24 13 19 4 -4 -8 0 -6 10 3 16 15 16 19 4 34 -12
15 -12 17 1 12 8 -2 17 -13 20 -24 3 -10 14 -20 25 -22 11 -2 32 -6 46 -9 19
-4 29 1 41 20 9 13 18 32 20 43 1 10 13 33 25 51 26 36 30 78 8 87 -8 3 -12
12 -9 21 5 11 2 14 -10 9 -10 -4 -16 -1 -16 8 0 16 -60 48 -90 48 -10 0 -22 5
-26 11 -5 9 6 9 42 3 27 -4 70 -8 96 -8 26 1 45 -3 42 -7 -2 -4 8 -7 23 -6 18
1 27 -3 26 -10 -2 -7 5 -13 15 -13 10 0 29 -10 41 -21 17 -16 25 -19 31 -10
10 17 15 15 47 -16 16 -14 43 -32 61 -40 18 -7 36 -21 39 -31 4 -9 10 -19 13
-22 4 -3 12 -23 18 -45 l10 -40 1 34 c1 33 1 33 26 17 13 -9 44 -16 68 -16 35
0 49 6 73 31 19 20 36 29 51 26 16 -3 20 0 15 12 -3 9 -10 19 -16 23 -6 4 1 8
17 8 15 0 27 3 27 8 -1 11 -73 42 -101 43 -13 0 -40 7 -59 15 -27 11 -29 13
-8 9 34 -6 40 3 22 35 -7 14 -13 21 -14 17 0 -5 5 -17 11 -28 9 -18 8 -19 -18
-13 -46 11 -51 23 -20 49 29 26 35 40 13 32 -10 -4 -16 2 -18 20 -3 29 -28 45
-28 19 0 -9 -4 -16 -8 -16 -4 0 -8 -18 -9 -40 -3 -62 -25 -76 -104 -67 -14 2
-31 7 -38 11 -6 4 -23 5 -36 2 -17 -4 -42 3 -76 21 -29 15 -68 28 -88 30 -42
5 -51 11 -31 23 9 6 10 10 3 10 -6 0 -15 -5 -18 -10 -4 -6 -10 -8 -14 -6 -4 3
-40 7 -80 10 -41 3 -76 7 -78 10 -11 11 10 26 38 26 16 0 29 4 29 9 0 5 16 12
35 15 19 4 35 11 35 16 0 5 26 6 58 3 31 -3 63 -6 70 -6 13 0 17 -27 4 -27 -5
0 -9 -7 -9 -15 0 -8 4 -12 9 -9 5 3 14 1 21 -4 26 -21 76 -24 99 -7 22 16 22
17 2 13 -11 -3 -29 1 -40 10 -18 14 -17 14 9 8 16 -4 38 -1 55 8 28 15 62 50
62 64 0 5 9 18 21 30 18 20 19 24 4 38 -8 9 -13 20 -10 25 4 5 -2 9 -12 9 -17
1 -17 1 0 14 10 8 14 17 8 20 -5 3 -12 0 -14 -6 -4 -10 -6 -10 -6 0 -1 6 -12
12 -26 12 -14 0 -35 -6 -46 -12 -17 -10 -23 -10 -26 0 -8 21 -21 13 -15 -10 3
-14 2 -19 -6 -14 -7 4 -12 1 -12 -7 0 -22 -47 -9 -65 19 -12 19 -24 24 -55 24
-49 0 -46 -20 5 -40 24 -9 31 -16 23 -22 -10 -6 -8 -8 4 -8 27 0 14 -33 -18
-45 -83 -32 -94 -38 -94 -47 0 -6 -11 -8 -25 -6 -13 3 -22 1 -19 -3 6 -11 -41
-23 -55 -15 -13 9 -63 -23 -55 -35 3 -5 1 -9 -5 -9 -21 0 -20 19 1 34 12 9 18
16 11 16 -7 0 -9 16 -6 44 5 37 1 49 -26 86 -27 37 -44 76 -25 57 4 -3 16 0
28 8 11 8 28 15 38 15 12 0 15 5 11 16 -5 15 -3 15 20 -1 16 -10 38 -15 53
-12 16 3 24 0 21 -7 -3 -6 6 -12 19 -12 15 -1 25 5 29 17 4 11 11 16 17 13 6
-4 8 -2 4 4 -3 6 1 17 9 25 22 23 18 68 -9 100 -20 23 -33 29 -70 30 l-45 1
27 18 27 19 -47 -3 c-25 -2 -46 -7 -45 -13 1 -5 -4 -9 -10 -8 -7 2 -12 0 -10
-5 1 -4 -2 -7 -8 -7 -5 0 -9 4 -7 8 1 5 -2 6 -7 3 -5 -4 -12 -2 -16 4 -17 27
-165 63 -165 40 0 -5 -12 -10 -27 -10 -25 0 -24 1 15 30 23 17 42 35 42 41 0
6 6 9 14 6 11 -4 13 7 12 59 -2 61 -1 64 18 58 12 -4 24 -11 27 -16 3 -5 22
-18 43 -29 28 -15 41 -17 56 -9 14 7 20 7 20 0 0 -15 30 -12 36 4 3 8 12 17
20 20 9 3 12 1 9 -4 -10 -16 11 -12 25 5 10 12 10 15 0 15 -8 0 -11 2 -8 5 3
3 17 1 32 -4 15 -6 26 -7 26 -1 0 4 -8 11 -17 13 -12 3 -9 5 8 6 32 1 34 25 2
42 -12 7 -23 16 -23 21 0 11 -59 34 -108 43 -25 4 -56 2 -78 -5 -29 -10 -38
-10 -44 0 -6 10 -9 10 -15 0 -4 -7 -4 -15 1 -19 5 -3 -1 -16 -13 -28 -22 -21
-23 -21 -23 -3 0 11 4 20 9 20 5 0 8 6 8 13 -2 22 24 97 33 97 6 0 9 3 9 8 -4
21 3 42 17 56 8 9 12 21 8 27 -4 7 0 9 12 5 15 -4 23 4 38 36 21 46 23 76 6
137 -10 36 -39 68 -52 55 -3 -2 -4 16 -3 41 2 41 0 45 -22 45 -15 0 -27 -8
-33 -22 -5 -13 -9 -19 -9 -14 -2 21 -31 -19 -31 -43 0 -21 -2 -23 -10 -11 -7
11 -8 2 -4 -27 4 -27 3 -43 -4 -43 -6 0 -12 3 -15 8 -2 4 -2 1 0 -6 1 -8 3
-21 3 -30 0 -13 3 -12 15 4 14 18 14 17 16 -16 1 -19 1 -41 0 -48 -1 -8 7 -16
18 -19 25 -6 34 -44 21 -91 -16 -58 -27 -69 -32 -34 -2 17 -1 29 4 26 17 -11
7 8 -17 32 -14 14 -25 29 -25 34 0 6 -7 10 -15 10 -13 0 -20 18 -16 43 2 11
-17 9 -24 -3 -3 -5 -1 -10 4 -10 6 0 11 -5 11 -12 0 -7 -21 10 -46 36 -51 55
-59 52 -70 -23 -9 -57 2 -173 17 -182 9 -5 8 -17 -4 -45 -13 -32 -22 -33 -19
-3 1 3 -5 6 -13 6 -8 0 -12 -4 -9 -9 8 -13 -13 -9 -23 5 -6 6 -13 23 -15 37
-3 14 -13 52 -23 85 -9 33 -21 74 -25 90 -57 202 -130 457 -138 483 -6 18 -12
36 -13 40 -2 9 -5 17 -23 74 -9 26 -24 80 -35 120 -76 281 -206 700 -246 793
-7 17 -29 73 -50 125 -20 52 -44 109 -52 126 -15 30 -15 33 8 70 21 35 24 49
22 127 -3 87 -1 92 35 88 6 -1 12 3 12 9 0 5 -18 10 -41 10 -28 0 -38 4 -33
12 7 11 -4 10 -51 -7 -16 -6 -15 -3 5 13 13 11 28 18 32 16 4 -3 8 6 8 20 0
31 -11 33 -36 5 -12 -14 -26 -19 -44 -15 -14 3 -20 3 -13 0 9 -4 5 -14 -12
-32 -21 -22 -27 -24 -37 -13 -9 9 -9 12 -1 7 6 -3 14 -2 18 4 3 5 -3 10 -13
10 -20 0 -37 25 -33 49 1 7 -2 10 -7 7 -5 -3 -15 7 -23 22 -7 15 -24 42 -37
59 -15 21 -22 39 -18 50 4 10 4 14 0 10 -10 -9 -55 54 -47 66 3 6 1 7 -5 3 -6
-3 -13 2 -16 11 -3 10 -25 38 -48 63 -23 25 -41 49 -40 53 1 5 -2 6 -8 2 -6
-3 -36 9 -68 28 -31 19 -81 47 -110 61 -32 16 -50 31 -46 38 4 6 3 8 -3 5 -15
-9 -166 66 -156 77 4 5 2 6 -5 2 -7 -4 -59 14 -120 42 -59 27 -117 52 -130 56
-12 4 -20 10 -18 14 2 4 -6 8 -17 8 -20 1 -58 16 -157 62 -19 8 -37 16 -40 17
-3 0 -21 6 -40 12 -19 6 -57 14 -85 18 -27 4 -95 16 -150 27 -55 11 -120 24
-145 29 -69 12 -375 18 -465 9z m-1867 -254 c-7 -8 -15 -12 -17 -11 -5 6 10
25 20 25 5 0 4 -6 -3 -14z m369 -328 c-3 -8 -6 -5 -6 6 -1 11 2 17 5 13 3 -3
4 -12 1 -19z m-852 -278 c3 -5 1 -10 -4 -10 -6 0 -11 5 -11 10 0 6 2 10 4 10
3 0 8 -4 11 -10z m4520 -301 c-3 -8 -15 -20 -26 -27 -19 -12 -19 -11 -9 8 6
11 15 20 20 20 5 0 7 8 3 18 -4 13 -3 14 6 6 6 -6 9 -17 6 -25z m-5685 -221
c0 -5 -6 -8 -14 -8 -9 0 -12 7 -9 21 4 16 8 17 14 7 5 -7 9 -16 9 -20z m0
-149 c0 -5 -4 -9 -10 -9 -5 0 -10 7 -10 16 0 8 5 12 10 9 6 -3 10 -10 10 -16z
m883 -288 c-5 -3 -14 -17 -20 -31 l-12 -25 0 26 c-1 28 17 52 32 42 5 -3 5 -8
0 -12z m-51 -50 c-7 -4 -23 -6 -35 -5 -12 1 -25 3 -29 3 -5 1 -8 6 -8 11 0 6
11 8 25 6 13 -3 24 -2 24 2 -3 21 3 24 19 9 13 -14 14 -19 4 -26z m-37 -991
c-3 -5 -13 -10 -21 -10 -8 0 -12 5 -9 10 3 6 13 10 21 10 8 0 12 -4 9 -10z
m5552 -376 c-2 -2 -12 -1 -22 3 -18 6 -18 7 1 13 17 7 33 -5 21 -16z m152
-285 c-8 -5 -21 -9 -31 -9 -9 0 -18 -6 -21 -12 -3 -10 -8 -10 -21 1 -22 18 -9
26 44 27 27 1 37 -2 29 -7z m796 -589 c-3 -5 -11 -10 -16 -10 -6 0 -7 5 -4 10
3 6 11 10 16 10 6 0 7 -4 4 -10z"/>
<path d="M3260 9359 c0 -5 5 -7 10 -4 6 3 10 8 10 11 0 2 -4 4 -10 4 -5 0 -10
-5 -10 -11z"/>
<path d="M3160 9195 c-8 -9 -8 -15 -2 -15 12 0 26 19 19 26 -2 2 -10 -2 -17
-11z"/>
<path d="M2890 9170 c-1 -8 -2 -18 -1 -23 1 -4 2 -26 3 -48 1 -22 4 -35 8 -27
4 7 4 36 0 63 -4 28 -8 43 -10 35z"/>
<path d="M3094 9108 c-10 -12 -13 -18 -6 -14 7 4 12 2 12 -5 0 -20 14 -1 15
21 2 25 2 25 -21 -2z"/>
<path d="M2700 8980 c0 -5 5 -10 10 -10 6 0 10 5 10 10 0 6 -4 10 -10 10 -5 0
-10 -4 -10 -10z"/>
<path d="M2770 8906 c0 -4 7 -14 15 -22 8 -9 15 -11 15 -6 0 5 -7 15 -15 22
-8 7 -15 9 -15 6z"/>
<path d="M2400 8857 c0 -10 8 -17 18 -17 9 0 13 4 7 8 -5 4 -13 11 -17 16 -5
5 -8 2 -8 -7z"/>
<path d="M6898 8753 c7 -3 16 -2 19 1 4 3 -2 6 -13 5 -11 0 -14 -3 -6 -6z"/>
<path d="M2560 8700 c0 -5 5 -10 10 -10 6 0 10 5 10 10 0 6 -4 10 -10 10 -5 0
-10 -4 -10 -10z"/>
<path d="M7092 8580 c0 -14 2 -19 5 -12 2 6 2 18 0 25 -3 6 -5 1 -5 -13z"/>
<path d="M2741 8504 c0 -11 3 -14 6 -6 3 7 2 16 -1 19 -3 4 -6 -2 -5 -13z"/>
<path d="M2088 8378 c-3 -7 -1 -24 3 -38 6 -22 7 -20 8 13 1 38 -3 47 -11 25z"/>
<path d="M2770 8370 c0 -5 5 -10 11 -10 5 0 7 5 4 10 -3 6 -8 10 -11 10 -2 0
-4 -4 -4 -10z"/>
<path d="M1840 8345 c0 -8 4 -15 10 -15 5 0 7 7 4 15 -4 8 -8 15 -10 15 -2 0
-4 -7 -4 -15z"/>
<path d="M2008 8343 c7 -3 16 -2 19 1 4 3 -2 6 -13 5 -11 0 -14 -3 -6 -6z"/>
<path d="M1918 8283 c7 -3 16 -2 19 1 4 3 -2 6 -13 5 -11 0 -14 -3 -6 -6z"/>
<path d="M2225 8270 c-8 -13 -1 -24 14 -19 6 3 7 10 2 18 -6 10 -10 10 -16 1z"/>
<path d="M2060 8260 c0 -5 5 -10 10 -10 6 0 10 5 10 10 0 6 -4 10 -10 10 -5 0
-10 -4 -10 -10z"/>
<path d="M1875 8240 c3 -5 8 -10 11 -10 2 0 4 5 4 10 0 6 -5 10 -11 10 -5 0
-7 -4 -4 -10z"/>
<path d="M1148 8183 c12 -2 30 -2 40 0 9 3 -1 5 -23 4 -22 0 -30 -2 -17 -4z"/>
<path d="M975 8160 c-3 -5 1 -10 10 -10 9 0 13 5 10 10 -3 6 -8 10 -10 10 -2
0 -7 -4 -10 -10z"/>
<path d="M2338 8153 c7 -3 16 -2 19 1 4 3 -2 6 -13 5 -11 0 -14 -3 -6 -6z"/>
<path d="M1580 8134 l-25 -14 28 0 c17 0 27 5 27 15 0 8 -1 15 -2 14 -2 -1
-14 -7 -28 -15z"/>
<path d="M1630 8080 c0 -5 12 -10 26 -10 14 0 23 4 19 10 -3 6 -15 10 -26 10
-10 0 -19 -4 -19 -10z"/>
<path d="M1718 8063 c7 -3 16 -2 19 1 4 3 -2 6 -13 5 -11 0 -14 -3 -6 -6z"/>
<path d="M1665 8050 c3 -5 8 -10 11 -10 2 0 4 5 4 10 0 6 -5 10 -11 10 -5 0
-7 -4 -4 -10z"/>
<path d="M2072 8010 c0 -14 2 -19 5 -12 2 6 2 18 0 25 -3 6 -5 1 -5 -13z"/>
<path d="M1578 8013 c7 -3 16 -2 19 1 4 3 -2 6 -13 5 -11 0 -14 -3 -6 -6z"/>
<path d="M1950 7950 c-11 -7 -7 -9 17 -7 17 1 29 5 26 10 -6 10 -25 9 -43 -3z"/>
<path d="M1688 7923 c6 -2 18 -2 25 0 6 3 1 5 -13 5 -14 0 -19 -2 -12 -5z"/>
<path d="M1110 7910 c0 -5 4 -10 9 -10 6 0 13 5 16 10 3 6 -1 10 -9 10 -9 0
-16 -4 -16 -10z"/>
<path d="M1857 7171 c-3 -13 -1 -18 9 -14 7 2 10 11 7 19 -7 19 -10 18 -16 -5z"/>
<path d="M1802 6975 c0 -16 2 -22 5 -12 2 9 2 23 0 30 -3 6 -5 -1 -5 -18z"/>
<path d="M1535 6890 c-3 -5 -1 -10 4 -10 6 0 11 5 11 10 0 6 -2 10 -4 10 -3 0
-8 -4 -11 -10z"/>
<path d="M1965 6710 c3 -5 8 -10 11 -10 2 0 4 5 4 10 0 6 -5 10 -11 10 -5 0
-7 -4 -4 -10z"/>
<path d="M7690 6696 c0 -9 5 -16 10 -16 6 0 10 4 10 9 0 6 -4 13 -10 16 -5 3
-10 -1 -10 -9z"/>
<path d="M1670 6690 c-9 -6 -10 -10 -3 -10 6 0 15 5 18 10 8 12 4 12 -15 0z"/>
<path d="M1762 6660 c0 -14 2 -19 5 -12 2 6 2 18 0 25 -3 6 -5 1 -5 -13z"/>
<path d="M7931 6604 c0 -11 3 -14 6 -6 3 7 2 16 -1 19 -3 4 -6 -2 -5 -13z"/>
<path d="M7656 6521 c-4 -5 -2 -12 3 -15 5 -4 12 -2 15 3 4 5 2 12 -3 15 -5 4
-12 2 -15 -3z"/>
<path d="M2326 6453 c-6 -14 -5 -15 5 -6 7 7 10 15 7 18 -3 3 -9 -2 -12 -12z"/>
<path d="M2008 6423 c7 -3 16 -2 19 1 4 3 -2 6 -13 5 -11 0 -14 -3 -6 -6z"/>
<path d="M2108 6413 c7 -3 16 -2 19 1 4 3 -2 6 -13 5 -11 0 -14 -3 -6 -6z"/>
<path d="M2068 6403 c7 -3 16 -2 19 1 4 3 -2 6 -13 5 -11 0 -14 -3 -6 -6z"/>
<path d="M8198 6283 c7 -3 16 -2 19 1 4 3 -2 6 -13 5 -11 0 -14 -3 -6 -6z"/>
<path d="M2010 6150 c0 -5 5 -10 10 -10 6 0 10 5 10 10 0 6 -4 10 -10 10 -5 0
-10 -4 -10 -10z"/>
<path d="M2106 6055 c4 -8 8 -15 10 -15 2 0 4 7 4 15 0 8 -4 15 -10 15 -5 0
-7 -7 -4 -15z"/>
<path d="M8040 5890 c-23 -7 -23 -8 -3 -9 12 -1 25 4 28 9 3 6 5 10 3 9 -2 -1
-14 -5 -28 -9z"/>
<path d="M8242 5788 c2 -6 10 -13 16 -14 7 -1 8 0 2 3 -5 2 -8 9 -4 14 3 5 0
9 -6 9 -7 0 -10 -5 -8 -12z"/>
<path d="M2251 5684 c0 -11 3 -14 6 -6 3 7 2 16 -1 19 -3 4 -6 -2 -5 -13z"/>
<path d="M8348 5503 c7 -3 16 -2 19 1 4 3 -2 6 -13 5 -11 0 -14 -3 -6 -6z"/>
<path d="M8408 5483 c7 -3 16 -2 19 1 4 3 -2 6 -13 5 -11 0 -14 -3 -6 -6z"/>
<path d="M8860 5421 c0 -6 5 -13 10 -16 6 -3 10 1 10 9 0 9 -4 16 -10 16 -5 0
-10 -4 -10 -9z"/>
<path d="M8631 5331 c-8 -5 5 -7 35 -4 27 3 51 7 53 9 9 8 -75 3 -88 -5z"/>
<path d="M8055 4970 c3 -5 8 -10 11 -10 2 0 4 5 4 10 0 6 -5 10 -11 10 -5 0
-7 -4 -4 -10z"/>
</g>
</svg>
